<svg xmlns="http://www.w3.org/2000/svg" viewBox="0 0 351.15 214.58"><defs><style>.cls-1{fill:none;}.cls-2{fill:#cc195a;}.cls-3{fill:#404040;}</style></defs><g id="Capa_2" data-name="Capa 2"><g id="Capa_1-2" data-name="Capa 1"><rect class="cls-1" x="0.15" y="0.15" width="27.6" height="27.6"/><rect class="cls-1" x="323.4" y="0.15" width="27.6" height="27.6"/><rect class="cls-1" x="323.4" y="186.83" width="27.6" height="27.6"/><rect class="cls-1" x="0.15" y="186.83" width="27.6" height="27.6"/><polygon class="cls-2" points="208.73 46.87 199.02 52.47 175.56 66.02 152.09 52.47 152.08 52.47 142.38 46.87 142.37 46.87 137.52 49.67 137.52 55.27 137.52 93.59 147.24 99.19 147.24 60.88 165.84 71.63 170.7 74.44 175.56 77.24 180.42 74.44 185.27 71.63 213.59 55.27 213.59 49.67 208.73 46.87"/><polygon class="cls-2" points="175.55 38.92 194.16 49.67 203.88 44.06 175.55 27.71 147.23 44.06 156.94 49.67 175.55 38.92"/><polygon class="cls-3" points="203.88 66.43 203.88 99.19 213.59 93.59 213.59 60.83 203.88 66.43"/><polyline class="cls-3" points="170.7 101.53 152.09 90.78 152.08 90.78 152.05 101.97 170.7 112.74 175.55 115.55 180.42 112.74 199.07 101.97 199.04 90.78 199.02 90.78 180.42 101.52 180.42 80.03 175.56 82.83 175.56 82.83 170.71 80.04 170.71 101.53"/><path class="cls-3" d="M27.75,186.22v-42.3h17.4a14.89,14.89,0,0,1,7,1.61A11.72,11.72,0,0,1,57,150a13.32,13.32,0,0,1,1.72,6.89v.84a13,13,0,0,1-1.78,6.86,12.07,12.07,0,0,1-4.84,4.53,14.62,14.62,0,0,1-6.92,1.6H35.72v15.47Zm8-22.72h8.65A6.61,6.61,0,0,0,49,161.93a5.47,5.47,0,0,0,1.75-4.29V157A5.44,5.44,0,0,0,49,152.75a6.61,6.61,0,0,0-4.59-1.57H35.72Z"/><path class="cls-3" d="M65.24,186.22l11.12-42.3h13.9l11.12,42.3H93.16l-2.3-9.3H75.76l-2.3,9.3Zm12.39-16.67H89l-5.14-20.61H82.77Z"/><path class="cls-3" d="M152.76,186.22l11.12-42.3h13.89l11.12,42.3h-8.21l-2.3-9.3H163.27l-2.3,9.3Zm12.39-16.67h11.36l-5.14-20.61h-1.09Z"/><path class="cls-3" d="M200,186.22v-42.3h15.17l8.4,36.87h1.09V143.92h7.85v42.3H217.36L209,149.36h-1.09v36.86Z"/><path class="cls-3" d="M275.08,148.25q-4.44-4.32-13-4.32H244.71V172.2h8v-21h9.56q4.83,0,7.07,2.5c1.48,1.67,2.23,4.06,2.23,7.16v8.47a10.45,10.45,0,0,1-2.23,7.12c-1.49,1.7-3.85,2.54-7.07,2.54H244.71v7.25h17.41c5.68,0,10-1.43,13-4.32s4.44-7.16,4.44-12.84v-8C279.52,155.41,278,151.12,275.08,148.25Z"/><path class="cls-3" d="M305.94,187.07q-8,0-12.69-4.38t-4.71-12.54V160q0-8.16,4.71-12.54t12.69-4.38q8,0,12.69,4.38T323.34,160v10.15q0,8.16-4.71,12.54T305.94,187.07Zm0-7.13a9.15,9.15,0,0,0,6.95-2.6,9.66,9.66,0,0,0,2.48-7V159.76a9.66,9.66,0,0,0-2.48-6.95,10.55,10.55,0,0,0-13.87,0,9.59,9.59,0,0,0-2.51,6.95v10.63a9.59,9.59,0,0,0,2.51,7A9.18,9.18,0,0,0,305.94,179.94Z"/><path class="cls-3" d="M135.89,158.67v-.48a8.82,8.82,0,0,0-.93-4.06,7,7,0,0,0-2.81-2.87,9.61,9.61,0,0,0-4.72-1.06,2.91,2.91,0,0,0-.52,0,8.38,8.38,0,0,0-6.13,2.58,10,10,0,0,0-2.42,7.07v10.39a10.31,10.31,0,0,0,2.42,7.11,8,8,0,0,0,4.85,2.52,9.89,9.89,0,0,0,1.92.16c2.91,0,5-.77,6.35-2.29a8.61,8.61,0,0,0,2-5.81v-.6h-10v-6.77h17.88v5.56q0,8.16-4.71,12.54a14.32,14.32,0,0,1-2.66,2,19,19,0,0,1-9.6,2.4l-.57,0a4.78,4.78,0,0,1-.53,0h-.3c-.25,0-.48,0-.71,0a7,7,0,0,1-.8-.07,15.35,15.35,0,0,1-5.76-1.85,14.25,14.25,0,0,1-5.63-5.73,18.84,18.84,0,0,1-2.08-9.22V160q0-8.16,4.59-12.55,4.44-4.22,11.92-4.36h.53q7.8,0,12.06,4.14t4.25,11.2v.25Z"/><path class="cls-1" d="M351.15,214.58H0V0H351.15ZM.29,214.28H350.86V.29H.29Z"/></g></g></svg>